<svg viewBox="0 0 72 108" fill="none" xmlns="http://www.w3.org/2000/svg">
<path d="M58.9393 76.0607C59.5251 76.6464 60.4749 76.6464 61.0607 76.0607L70.6066 66.5147C71.1924 65.9289 71.1924 64.9792 70.6066 64.3934C70.0208 63.8076 69.0711 63.8076 68.4853 64.3934L60 72.8787L51.5147 64.3934C50.9289 63.8076 49.9792 63.8076 49.3934 64.3934C48.8076 64.9792 48.8076 65.9289 49.3934 66.5147L58.9393 76.0607ZM58.5 -6.55671e-08L58.5 75L61.5 75L61.5 6.55671e-08L58.5 -6.55671e-08Z" fill="black"/>
<path d="M34.9393 107.061C35.5251 107.646 36.4749 107.646 37.0607 107.061L46.6066 97.5147C47.1924 96.9289 47.1924 95.9792 46.6066 95.3934C46.0208 94.8076 45.0711 94.8076 44.4853 95.3934L36 103.879L27.5147 95.3934C26.9289 94.8076 25.9792 94.8076 25.3934 95.3934C24.8076 95.9792 24.8076 96.9289 25.3934 97.5147L34.9393 107.061ZM34.5 31L34.5 106L37.5 106L37.5 31L34.5 31Z" fill="black"/>
<path d="M10.9393 76.0607C11.5251 76.6464 12.4749 76.6464 13.0607 76.0607L22.6066 66.5147C23.1924 65.9289 23.1924 64.9792 22.6066 64.3934C22.0208 63.8076 21.0711 63.8076 20.4853 64.3934L12 72.8787L3.51472 64.3934C2.92893 63.8076 1.97918 63.8076 1.3934 64.3934C0.807609 64.9792 0.807609 65.9289 1.3934 66.5147L10.9393 76.0607ZM10.5 -6.55671e-08L10.5 75L13.5 75L13.5 6.55671e-08L10.5 -6.55671e-08Z" fill="black"/>
</svg>
