<?xml version="1.0" encoding="utf-8"?>
<!-- Generator: Adobe Illustrator 27.2.0, SVG Export Plug-In . SVG Version: 6.00 Build 0)  -->
<svg version="1.1" id="Layer_1" xmlns="http://www.w3.org/2000/svg" xmlns:xlink="http://www.w3.org/1999/xlink" x="0px" y="0px"
	 viewBox="0 0 886 144" style="enable-background:new 0 0 886 144;" xml:space="preserve">
<style type="text/css">
	.st0{fill:none;stroke:#3A3A3C;stroke-width:3;}
	.st1{fill:#111111;}
</style>
<line class="st0" x1="444.5" y1="82" x2="444.5" y2="141"/>
<line class="st0" x1="886" y1="142.5" x2="0" y2="142.5"/>
<path class="st1" d="M467.3,14c2.4-0.4,3.6-0.3,5.2-1.7c1.2-1,1.2-1.6,1.3-2.6l0-0.2c0-3.3-3-4.3-5.3-3.5c-4,1.3-6.2,4.8-8.3,8.7
	c-1.3,2.5-2.6,5-3.7,7.5l-1.3,2.8l-3.8,7.5c-0.2,0.5-0.5,0.9-0.9,1.3c-2.1,2.4-5,2-6.3-1l-6.1-13.5c-0.5-1.2,0.4-2.3,1.5-2.5
	c0.1,0,0.2-0.1,0.2-0.2v0c0-0.1-0.1-0.2-0.2-0.2h-16.7c-0.1,0-0.2,0.1-0.2,0.2c0,0.1,0.1,0.2,0.2,0.3c1.6,0.1,3.2,1.1,3.9,2.7
	l15.4,33.9c0.1,0.1,0.2,0.2,0.3,0.2c0.1,0,0.3-0.1,0.3-0.2l5.3-11.9l8-16.1C460.9,16.3,463.1,14.7,467.3,14L467.3,14L467.3,14z
	 M525.8,18.1c-1-0.3-2-0.5-3-0.5c-3.1,0.1-5.8,0.6-9.5,4.5c-0.9,0.9-2.4,0.5-2.4-0.8v-4.1c0-0.6-0.6-0.9-1.1-0.6l-10.3,6.1l-3,1.9
	c-0.1,0.1-0.1,0.2-0.1,0.3l0,0.1c0.1,0.1,0.2,0.2,0.3,0.1c1.2-0.6,2.8,0.2,2.8,1.6v23.6c0,1.4-1.1,2.9-2.7,3c-0.1,0-0.2,0.1-0.2,0.2
	v0c0,0.1,0.1,0.2,0.2,0.2h16.8c0.1,0,0.2-0.1,0.2-0.2v0c0-0.1-0.1-0.2-0.2-0.2c-1.4-0.1-2.7-1.6-2.7-3V31c0-4,2.6-8.3,6.4-8.6
	c1.6-0.1,2.5,0.1,3,1.3c0.4,0.9,0.2,1.4,0.8,2.5c0.7,1.3,1.6,2,2.3,2.2c1.3,0.4,3.5,0.6,4.8-0.3C530.9,26.3,532.4,20.2,525.8,18.1
	L525.8,18.1z M383.1,33.4l-13.7-7.8c-2-1-2.7-2-2.7-3.4c0-3.9,4.9-4.9,6.8-4.9c0.2,0,0.4,0,0.6,0c5.4,0.6,5,4.6,4.1,7
	c-0.7,1.9-0.3,4.1,1.3,5.3c0.9,0.7,2,1.1,3.1,1.1h0.2c2.6,0,4.8-2.2,4.8-5.1c0-4.6-5.1-7.4-10.9-8.6l0,0l0,0c-0.8-0.2-1-0.2-1.8-0.3
	c-0.1,0-0.3,0-0.3,0c-3.3-0.3-6.7,0.1-9.6,1.8c-4.4,2.5-5.6,5.4-5.6,8.1c0,4.2,2.4,7.8,6.8,10.3l13.7,7.8c1.7,1,2.9,2.5,2.7,3.4
	c-1.2,4.4-6.3,4.9-8.8,4.9c-7.9,0-12.5-9.2-12.2-13.9c0-0.2-0.1-0.3-0.3-0.3c-0.1,0-0.2,0.1-0.2,0.2l-2.6,14.2
	c0,0.2,0.1,0.4,0.2,0.4c0.1,0.1,0.3,0.1,0.4,0c1.7-1.1,4-1.6,5.9-1.1c2.4,0.7,5.9,1.2,10.2,1.2c10,0,14.4-5.6,14.6-9.8
	C389.9,39.7,387.5,36,383.1,33.4L383.1,33.4L383.1,33.4z M480.4,16.8c-10-2.2-20,3.9-22.2,13.9c-2.4,9.9,3.7,20.1,13.8,22.6
	c10,2.2,19.8-4,22.2-13.9C496.6,29.4,490.5,19.3,480.4,16.8L480.4,16.8z M483.1,36.7c-2.3,9.7-5,17.4-11,15.8
	c-5.9-1.2-5-9.4-2.7-19.1c2.3-9.7,5-17.4,11-15.8C486.4,18.9,485.4,27,483.1,36.7L483.1,36.7z M429.8,53.2c-1.4-0.1-2.5-1.5-2.5-2.9
	V32.1c0-8.1-6.2-14.9-14.1-15.6c-2-0.2-3.2-0.3-6.3-0.1v0c-6.2,0.5-13.7,4.5-13.7,10c0,3.2,2.4,5.6,5.4,5.6h0.2c1.6,0,3.2-0.8,4.2-2
	c1.2-1.3,1.5-3.3,0.8-4.9c-1.2-2.7-1.2-8.1,6.5-8.1c2.9,0,5.6,2.5,5.6,5.6c0,14.5-23.9,11.5-23.9,21.8c0,6.6,6.3,9.1,12.9,9.1h1.5
	c3.6,0,5.9-0.7,7.4-1.4c1-0.4,2.1-0.2,2.9,0.6c0.5,0.5,1.2,0.8,1.9,0.8h11.2c0.1,0,0.2-0.1,0.2-0.2v0
	C430,53.3,429.9,53.2,429.8,53.2L429.8,53.2L429.8,53.2z M415.9,43.9c0,1.2-0.1,2.4-0.4,3.4c-0.9,3.8-4.6,6.2-8.4,5.4
	c-1.4-0.3-2.8-1-3.5-2.4c-3.8-8.4,5.8-11.9,10.1-17.8v0c0,0,1.2-1.7,1.9-0.8c0.2,0.2,0.1,0.7,0.1,1.2V43.9L415.9,43.9z"/>
</svg>
