<?xml version="1.0" encoding="UTF-8"?><svg id="Layer_1" xmlns="http://www.w3.org/2000/svg" viewBox="0 0 50 50"><defs><style>.cls-1{fill:#fff;}.cls-2{fill:#e0a359;}</style></defs><rect class="cls-1" width="50" height="50"/><path class="cls-2" d="m33.88,23.28l-13.66-7.85c-1.95-.98-2.69-1.96-2.69-3.43,0-3.92,4.88-4.9,6.83-4.9.22,0,.43.01.64.02,5.36.57,4.98,4.61,4.05,6.96-.74,1.88-.28,4.06,1.32,5.3.88.68,1.96,1.12,3.07,1.12h.22c2.62,0,4.82-2.2,4.82-5.06,0-4.61-5.14-7.39-10.88-8.59h-.02s-.04-.01-.04-.01c-.76-.17-.97-.21-1.75-.32-.07-.01-.31-.03-.31-.03-3.32-.34-6.68.08-9.65,1.85-4.39,2.45-5.61,5.4-5.61,8.09,0,4.17,2.44,7.85,6.83,10.3l13.66,7.85c1.71.98,2.92,2.45,2.68,3.43-1.22,4.42-6.34,4.91-8.78,4.91-7.89,0-12.5-9.2-12.22-13.95,0-.15-.11-.28-.26-.28-.12,0-.23.09-.25.21l-2.59,14.2c-.03.18.06.36.22.44.13.07.29.05.41-.03,1.7-1.13,4.02-1.56,5.9-1.09,2.44.74,5.86,1.23,10.24,1.23,10,0,14.39-5.64,14.64-9.81,0-4.17-2.44-7.85-6.83-10.55h0s0,0,0,0Z"/></svg>