<svg viewBox="0 0 31 32" fill="none" xmlns="http://www.w3.org/2000/svg">
<path d="M9.16586 3.64843C9.7338 0.5335 13.5239 -0.718025 15.8351 1.44621L18.8391 4.25924C19.7161 5.08056 20.916 5.46409 22.1068 5.30378L26.1855 4.75473C29.3235 4.3323 31.685 7.5502 30.3409 10.417L28.5938 14.1433C28.0837 15.2312 28.0897 16.4908 28.6102 17.5739L30.3927 21.2832C31.7642 24.1371 29.4335 27.3774 26.2916 26.985L22.2079 26.4749C21.0156 26.3259 19.8195 26.7209 18.9503 27.5506L15.9733 30.3921C13.6829 32.5783 9.88097 31.3631 9.28332 28.2537L8.5065 24.2122C8.27969 23.0322 7.53443 22.0167 6.47679 21.4464L2.85434 19.4932C0.0673701 17.9905 0.0483156 13.9991 2.82081 12.4699L6.42445 10.4822C7.4766 9.90185 8.21213 8.87926 8.42766 7.69715L9.16586 3.64843Z" fill="#161616"/>
</svg>
